<?xml version="1.0" encoding="UTF-8"?>
<svg xmlns="http://www.w3.org/2000/svg" xmlns:xlink="http://www.w3.org/1999/xlink" width="596px" height="100px" viewBox="0 0 596 100" version="1.1">
<g id="surface1">
<path style=" stroke:none;fill-rule:nonzero;fill:rgb(100%,0%,0%);fill-opacity:1;" d="M 139.839844 15.667969 C 138.195312 9.542969 133.371094 4.710938 127.257812 3.0625 C 116.082031 0 71.390625 0 71.390625 0 C 71.390625 0 26.699219 0 15.523438 2.945312 C 9.527344 4.59375 4.585938 9.542969 2.941406 15.667969 C 0 26.859375 0 50.066406 0 50.066406 C 0 50.066406 0 73.390625 2.941406 84.464844 C 4.585938 90.589844 9.410156 95.417969 15.523438 97.070312 C 26.816406 100.132812 71.390625 100.132812 71.390625 100.132812 C 71.390625 100.132812 116.082031 100.132812 127.257812 97.1875 C 133.371094 95.535156 138.195312 90.707031 139.839844 84.582031 C 142.78125 73.390625 142.78125 50.183594 142.78125 50.183594 C 142.78125 50.183594 142.898438 26.859375 139.839844 15.667969 Z M 139.839844 15.667969 "/>
<path style=" stroke:none;fill-rule:nonzero;fill:rgb(100%,100%,100%);fill-opacity:1;" d="M 57.160156 28.625 L 57.160156 71.503906 L 94.324219 50.066406 Z M 57.160156 28.625 "/>
<path style=" stroke:none;fill-rule:nonzero;fill:rgb(15.686275%,15.686275%,15.686275%);fill-opacity:1;" d="M 527.183594 66.183594 L 527.183594 69.351562 C 527.183594 73.375 527.300781 76.390625 527.542969 78.398438 C 527.777344 80.410156 528.273438 81.875 529.023438 82.792969 C 529.773438 83.714844 530.929688 84.175781 532.5 84.175781 C 534.609375 84.175781 536.058594 83.355469 536.84375 81.722656 C 537.625 80.085938 538.050781 77.359375 538.121094 73.542969 L 550.28125 74.257812 C 550.351562 74.804688 550.386719 75.554688 550.386719 76.507812 C 550.386719 82.300781 548.800781 86.628906 545.632812 89.488281 C 542.464844 92.351562 537.984375 93.78125 532.191406 93.78125 C 525.242188 93.78125 520.367188 91.601562 517.574219 87.242188 C 514.78125 82.878906 513.382812 76.132812 513.382812 67.003906 L 513.382812 56.066406 C 513.382812 46.660156 514.832031 39.796875 517.730469 35.46875 C 520.625 31.140625 525.582031 28.976562 532.601562 28.976562 C 537.4375 28.976562 541.152344 29.863281 543.742188 31.636719 C 546.328125 33.40625 548.152344 36.167969 549.210938 39.914062 C 550.265625 43.664062 550.792969 48.84375 550.792969 55.453125 L 550.792969 66.183594 Z M 528.972656 39.8125 C 528.257812 40.699219 527.777344 42.148438 527.542969 44.15625 C 527.300781 46.167969 527.183594 49.214844 527.183594 53.304688 L 527.183594 57.804688 L 537.507812 57.804688 L 537.507812 53.304688 C 537.507812 49.285156 537.371094 46.234375 537.097656 44.15625 C 536.824219 42.078125 536.332031 40.613281 535.617188 39.761719 C 534.898438 38.910156 533.792969 38.484375 532.292969 38.484375 C 530.792969 38.484375 529.6875 38.929688 528.972656 39.8125 Z M 582.039062 3.886719 L 582.039062 36.898438 L 581.921875 36.898438 C 580.746094 34.542969 578.980469 32.542969 576.746094 31.128906 C 574.511719 29.597656 572.042969 28.890625 569.453125 28.890625 C 566.160156 28.890625 563.457031 29.832031 561.574219 31.597656 C 559.691406 33.367188 558.28125 36.191406 557.457031 40.199219 C 556.632812 44.085938 556.28125 49.625 556.164062 56.8125 L 556.164062 66.707031 C 556.164062 76.015625 557.339844 82.964844 559.574219 87.324219 C 561.808594 91.683594 565.21875 93.921875 570.042969 93.921875 C 572.746094 93.921875 575.101562 93.214844 577.335938 92.039062 C 579.570312 90.742188 581.21875 89.09375 582.277344 86.972656 L 582.628906 86.972656 L 584.027344 92.8125 L 595.683594 92.8125 L 595.683594 3.886719 Z M 466.285156 7.054688 L 466.285156 92.8125 L 480.460938 92.8125 L 480.460938 55.730469 L 485.976562 55.730469 L 494.972656 92.8125 L 509.886719 92.8125 L 497.5625 52.269531 C 497.5625 52.269531 507.582031 48.777344 507.582031 31.03125 C 507.582031 24.085938 506.203125 16.390625 501.292969 11.476562 C 496.828125 7.011719 486.488281 7.054688 486.488281 7.054688 Z M 479.96875 17.773438 L 486.890625 17.773438 C 486.890625 17.773438 493.546875 17.894531 493.546875 31.683594 C 493.546875 45.699219 485.910156 46.953125 485.910156 46.953125 L 479.96875 46.953125 Z M 575.6875 38.902344 C 576.984375 38.902344 578.277344 39.492188 579.453125 40.550781 C 580.628906 41.730469 581.453125 43.144531 581.921875 44.792969 L 581.921875 80.375 C 581.335938 81.433594 580.511719 82.257812 579.570312 82.847656 C 578.628906 83.4375 577.570312 83.671875 576.394531 83.671875 C 574.980469 83.671875 573.808594 83.082031 572.867188 82.023438 C 572.042969 80.964844 571.335938 79.078125 570.984375 76.488281 C 570.632812 73.894531 570.394531 70.359375 570.335938 68.0625 L 570.277344 57.519531 C 570.277344 52.6875 570.394531 48.917969 570.75 46.207031 C 571.101562 43.613281 571.570312 41.730469 572.394531 40.550781 C 573.101562 39.492188 574.277344 38.902344 575.6875 38.902344 Z M 399.0625 31.585938 C 397.152344 29.816406 394.53125 28.929688 391.191406 28.929688 C 388.601562 28.929688 386.183594 29.664062 383.933594 31.128906 C 381.6875 32.59375 379.949219 34.519531 378.722656 36.902344 L 378.617188 36.902344 L 378.621094 3.886719 L 365.027344 3.886719 L 365.027344 92.8125 L 376.675781 92.8125 L 378.109375 86.886719 L 378.414062 86.886719 C 379.503906 89 381.140625 90.667969 383.320312 91.894531 C 385.5 93.121094 387.921875 93.734375 390.578125 93.734375 C 395.347656 93.734375 398.855469 91.535156 401.105469 87.140625 C 403.355469 82.746094 404.480469 75.882812 404.480469 66.546875 L 404.480469 56.628906 C 404.480469 49.613281 404.050781 44.128906 403.203125 40.171875 C 402.347656 36.222656 400.96875 33.359375 399.0625 31.585938 Z M 389.710938 76.464844 C 389.335938 79.054688 388.703125 80.894531 387.820312 81.984375 C 386.933594 83.074219 385.738281 83.617188 384.242188 83.617188 C 383.082031 83.617188 382.007812 83.347656 381.023438 82.800781 C 380.035156 82.257812 379.234375 81.4375 378.621094 80.347656 L 378.621094 44.777344 C 379.097656 43.074219 379.914062 41.675781 381.074219 40.585938 C 382.230469 39.496094 383.492188 38.949219 384.855469 38.949219 C 386.285156 38.949219 387.394531 39.511719 388.175781 40.636719 C 388.960938 41.761719 389.503906 43.652344 389.8125 46.3125 C 390.117188 48.96875 390.273438 52.75 390.273438 57.65625 L 390.273438 65.730469 C 390.273438 70.296875 390.082031 73.875 389.710938 76.464844 Z M 322.5 18.402344 L 308.496094 18.402344 L 308.496094 92.816406 L 294.699219 92.816406 L 294.699219 18.402344 L 280.695312 18.402344 L 280.695312 7.058594 L 322.5 7.058594 Z M 356.519531 30.15625 L 356.519531 92.816406 L 345.480469 92.816406 L 344.253906 85.148438 L 343.949219 85.148438 C 340.949219 90.941406 336.453125 93.835938 330.457031 93.835938 C 326.300781 93.835938 323.234375 92.476562 321.257812 89.75 C 319.28125 87.023438 318.292969 82.765625 318.292969 76.972656 L 318.292969 30.15625 L 332.398438 30.15625 L 332.398438 76.152344 C 332.398438 78.949219 332.703125 80.941406 333.316406 82.132812 C 333.929688 83.328125 334.953125 83.921875 336.382812 83.921875 C 337.609375 83.921875 338.785156 83.546875 339.910156 82.796875 C 341.035156 82.046875 341.867188 81.09375 342.414062 79.9375 L 342.414062 30.15625 Z M 284.171875 30.15625 L 284.171875 92.816406 L 273.132812 92.816406 L 271.90625 85.148438 L 271.597656 85.148438 C 268.597656 90.941406 264.101562 93.835938 258.105469 93.835938 C 253.949219 93.835938 250.882812 92.476562 248.910156 89.75 C 246.929688 87.023438 245.945312 82.765625 245.945312 76.972656 L 245.945312 30.15625 L 260.050781 30.15625 L 260.050781 76.152344 C 260.050781 78.949219 260.355469 80.941406 260.96875 82.132812 C 261.582031 83.328125 262.605469 83.921875 264.035156 83.921875 C 265.261719 83.921875 266.4375 83.546875 267.5625 82.796875 C 268.6875 82.046875 269.519531 81.09375 270.066406 79.9375 L 270.066406 30.15625 Z M 173.058594 65.011719 L 157.011719 7.054688 L 171.015625 7.054688 L 176.636719 33.324219 C 178.066406 39.800781 179.121094 45.316406 179.804688 49.882812 L 180.214844 49.882812 C 180.6875 46.613281 181.746094 41.128906 183.382812 33.425781 L 189.207031 7.054688 L 203.210938 7.054688 L 186.957031 65.011719 L 186.957031 92.816406 L 173.058594 92.816406 Z M 424.492188 66.183594 L 424.492188 69.351562 C 424.492188 73.375 424.609375 76.390625 424.847656 78.398438 C 425.085938 80.410156 425.578125 81.875 426.328125 82.792969 C 427.078125 83.714844 428.238281 84.175781 429.804688 84.175781 C 431.914062 84.175781 433.363281 83.355469 434.148438 81.722656 C 434.929688 80.085938 435.355469 77.359375 435.425781 73.542969 L 447.589844 74.257812 C 447.65625 74.804688 447.691406 75.554688 447.691406 76.507812 C 447.691406 82.300781 446.105469 86.628906 442.9375 89.488281 C 439.769531 92.351562 435.289062 93.78125 429.5 93.78125 C 422.546875 93.78125 417.675781 91.601562 414.882812 87.242188 C 412.085938 82.878906 410.691406 76.132812 410.691406 67.003906 L 410.691406 56.066406 C 410.691406 46.660156 412.140625 39.796875 415.035156 35.46875 C 417.929688 31.140625 422.886719 28.976562 429.90625 28.976562 C 434.746094 28.976562 438.457031 29.863281 441.046875 31.636719 C 443.636719 33.40625 445.457031 36.167969 446.515625 39.914062 C 447.570312 43.664062 448.101562 48.84375 448.101562 55.453125 L 448.101562 66.183594 Z M 426.277344 39.8125 C 425.5625 40.699219 425.085938 42.148438 424.847656 44.15625 C 424.609375 46.167969 424.492188 49.214844 424.492188 53.304688 L 424.492188 57.804688 L 434.8125 57.804688 L 434.8125 53.304688 C 434.8125 49.285156 434.675781 46.234375 434.40625 44.15625 C 434.132812 42.078125 433.636719 40.613281 432.921875 39.761719 C 432.207031 38.910156 431.097656 38.484375 429.601562 38.484375 C 428.101562 38.484375 426.996094 38.929688 426.277344 39.8125 Z M 207.40625 90.976562 C 204.578125 89.070312 202.566406 86.105469 201.375 82.082031 C 200.179688 78.0625 199.585938 72.714844 199.585938 66.035156 L 199.585938 56.9375 C 199.585938 50.191406 200.265625 44.773438 201.628906 40.6875 C 202.992188 36.597656 205.121094 33.617188 208.019531 31.742188 C 210.914062 29.871094 214.710938 28.933594 219.414062 28.933594 C 224.046875 28.933594 227.761719 29.886719 230.554688 31.792969 C 233.347656 33.703125 235.390625 36.683594 236.6875 40.738281 C 237.980469 44.792969 238.628906 50.191406 238.628906 56.9375 L 238.628906 66.035156 C 238.628906 72.714844 238 78.082031 236.738281 82.132812 C 235.476562 86.1875 233.433594 89.152344 230.605469 91.027344 C 227.777344 92.898438 223.945312 93.835938 219.105469 93.835938 C 214.132812 93.835938 210.230469 92.882812 207.40625 90.976562 Z M 223.246094 81.164062 C 224.03125 79.117188 224.421875 75.78125 224.421875 71.144531 L 224.421875 51.621094 C 224.421875 47.125 224.03125 43.839844 223.246094 41.757812 C 222.464844 39.679688 221.082031 38.640625 219.105469 38.640625 C 217.199219 38.640625 215.851562 39.679688 215.070312 41.757812 C 214.285156 43.839844 213.894531 47.125 213.894531 51.621094 L 213.894531 71.144531 C 213.894531 75.78125 214.269531 79.117188 215.019531 81.164062 C 215.769531 83.207031 217.128906 84.230469 219.105469 84.230469 C 221.082031 84.230469 222.464844 83.207031 223.246094 81.164062 Z M 223.246094 81.164062 "/>
</g>
</svg>
